<svg width="400" height="300" viewBox="0 0 400 300" fill="none" xmlns="http://www.w3.org/2000/svg">
<rect width="400" height="300" fill="url(#paint0_linear_90_2)"/>
<path d="M84.1016 147C78.6328 147 75.8984 144.266 75.8984 138.797V119.812C75.8984 114.344 78.6328 111.609 84.1016 111.609H91.3672C96.8359 111.609 99.5703 114.344 99.5703 119.812V122.391L95.1172 124.5H94.8828V119.812C94.8828 117.156 93.7109 115.828 91.3672 115.828H84.1016C81.7578 115.828 80.5859 117.156 80.5859 119.812V138.797C80.5859 141.453 81.7578 142.781 84.1016 142.781H91.3672C93.7109 142.781 94.8828 141.453 94.8828 138.797V136.219L99.3359 134.109H99.5703V138.797C99.5703 144.266 96.8359 147 91.3672 147H84.1016ZM116.211 147C110.742 147 108.008 144.266 108.008 138.797V136.219L112.461 134.109H112.695V138.797C112.695 141.453 113.867 142.781 116.211 142.781H123.477C125.82 142.781 126.992 141.453 126.992 138.797V133.875C126.992 131.219 125.82 129.891 123.477 129.891H117.148C112.461 129.891 110.117 127.547 110.117 122.859V118.641C110.117 113.953 112.461 111.609 117.148 111.609H122.539C127.227 111.609 129.57 113.953 129.57 118.641V119.883L125.117 121.992H124.883V118.641C124.883 116.766 124.102 115.828 122.539 115.828H117.148C115.586 115.828 114.805 116.766 114.805 118.641V122.859C114.805 124.734 115.586 125.672 117.148 125.672H123.477C128.945 125.672 131.68 128.406 131.68 133.875V138.797C131.68 144.266 128.945 147 123.477 147H116.211ZM167.07 147C161.602 147 158.867 144.266 158.867 138.797V112.781L163.32 110.672H163.555V138.797C163.555 141.453 164.727 142.781 167.07 142.781H174.336C176.68 142.781 177.852 141.453 177.852 138.797V112.781L182.305 110.672H182.539V138.797C182.539 141.453 183.711 142.781 186.055 142.781H193.32C195.664 142.781 196.836 141.453 196.836 138.797V112.781L201.289 110.672H201.523V138.797C201.523 144.266 198.789 147 193.32 147H186.055C183.242 147 181.289 146.25 180.195 144.75C178.945 146.25 176.992 147 174.336 147H167.07ZM209.727 147.938V128.25C209.727 123.562 212.07 121.219 216.758 121.219H222.617V121.453L220.742 125.438H216.758C215.195 125.438 214.414 126.375 214.414 128.25V145.828L209.961 147.938H209.727ZM233.633 147C228.945 147 226.602 144.656 226.602 139.969V128.25C226.602 123.562 228.945 121.219 233.633 121.219H239.023C243.711 121.219 246.055 123.562 246.055 128.25V129.492L231.359 140.859C231.578 142.141 232.336 142.781 233.633 142.781H239.023C240.586 142.781 241.367 141.844 241.367 139.969V138.727L245.82 136.617H246.055V139.969C246.055 144.656 243.711 147 239.023 147H233.633ZM231.289 135.961L241.344 127.852C241.25 126.242 240.477 125.438 239.023 125.438H233.633C232.07 125.438 231.289 126.375 231.289 128.25V135.961ZM260.117 147C255.43 147 253.086 144.656 253.086 139.969V128.25C253.086 123.562 255.43 121.219 260.117 121.219H265.508C270.195 121.219 272.539 123.562 272.539 128.25V129.492L268.086 131.602H267.852V128.25C267.852 126.375 267.07 125.438 265.508 125.438H260.117C258.555 125.438 257.773 126.375 257.773 128.25V139.969C257.773 141.844 258.555 142.781 260.117 142.781H265.508C267.07 142.781 267.852 141.844 267.852 139.969V138.727L272.305 136.617H272.539V139.969C272.539 144.656 270.195 147 265.508 147H260.117ZM280.742 147.938V112.781L285.195 110.672H285.43V129.656C285.633 129.609 285.852 129.57 286.086 129.539L295.227 120.281H295.461L299.586 122.227L291.758 129.422H293.164C297.852 129.422 300.195 131.766 300.195 136.453V145.828L295.742 147.938H295.508V136.453C295.508 134.578 294.727 133.641 293.164 133.641H287.773C286.211 133.641 285.43 134.578 285.43 136.453V145.828L280.977 147.938H280.742ZM313.555 147C308.867 147 306.523 144.656 306.523 139.969V139.125L310.977 137.016H311.211V139.969C311.211 141.844 311.992 142.781 313.555 142.781H318.945C320.508 142.781 321.289 141.844 321.289 139.969V138.117C321.289 136.242 320.508 135.305 318.945 135.305H314.539C309.852 135.305 307.508 132.953 307.508 128.25C307.508 123.562 309.852 121.219 314.539 121.219H317.281C321.969 121.219 324.312 123.109 324.312 126.891L319.859 129H319.625V128.25C319.625 126.375 318.844 125.438 317.281 125.438H314.539C312.977 125.438 312.195 126.375 312.195 128.25C312.195 130.141 312.977 131.086 314.539 131.086H318.945C323.633 131.086 325.977 133.43 325.977 138.117V139.969C325.977 144.656 323.633 147 318.945 147H313.555Z" fill="#FCF6F6"/>
<path d="M120.354 174.234V167.203C120.354 165.836 121.037 165.152 122.404 165.152H124.221C125.588 165.152 126.271 165.836 126.271 167.203V173.707L125.158 174.234H125.1V170.109H121.525V173.707L120.412 174.234H120.354ZM121.525 169.043H125.1V167.203C125.1 166.539 124.807 166.207 124.221 166.207H122.404C121.818 166.207 121.525 166.539 121.525 167.203V169.043ZM134.592 174C133.42 174 132.834 173.414 132.834 172.242V172.031L133.947 171.504H134.006V172.242C134.006 172.711 134.201 172.945 134.592 172.945H135.939C136.33 172.945 136.525 172.711 136.525 172.242V171.779C136.525 171.311 136.33 171.076 135.939 171.076H134.838C133.666 171.076 133.08 170.488 133.08 169.312C133.08 168.141 133.666 167.555 134.838 167.555H135.523C136.695 167.555 137.281 168.027 137.281 168.973L136.168 169.5H136.109V169.312C136.109 168.844 135.914 168.609 135.523 168.609H134.838C134.447 168.609 134.252 168.844 134.252 169.312C134.252 169.785 134.447 170.021 134.838 170.021H135.939C137.111 170.021 137.697 170.607 137.697 171.779V172.242C137.697 173.414 137.111 174 135.939 174H134.592ZM140.053 174.234V168.621H138.547V168.562L139.021 167.555H140.053V165.445L141.166 164.918H141.225V167.555H142.73V167.613L142.256 168.621H141.225V173.707L140.111 174.234H140.053ZM145.514 174C144.342 174 143.756 173.414 143.756 172.242V167.848L144.869 167.32H144.928V172.242C144.928 172.711 145.123 172.945 145.514 172.945H146.861C147.252 172.945 147.447 172.711 147.447 172.242V167.848L148.561 167.32H148.619V172.242C148.619 173.414 148.033 174 146.861 174H145.514ZM152.135 174C150.963 174 150.377 173.414 150.377 172.242V169.312C150.377 168.141 150.963 167.555 152.135 167.555H153.482C153.748 167.555 153.943 167.615 154.068 167.736V165.445L155.182 164.918H155.24V172.242C155.24 173.414 154.654 174 153.482 174H152.135ZM152.135 172.945H153.482C153.873 172.945 154.068 172.711 154.068 172.242V169.312C154.068 168.844 153.873 168.609 153.482 168.609H152.135C151.744 168.609 151.549 168.844 151.549 169.312V172.242C151.549 172.711 151.744 172.945 152.135 172.945ZM159.049 174C157.877 174 157.291 173.414 157.291 172.242V169.312C157.291 168.141 157.877 167.555 159.049 167.555H160.396C161.568 167.555 162.154 168.141 162.154 169.312V169.623L158.48 172.465C158.535 172.785 158.725 172.945 159.049 172.945H160.396C160.787 172.945 160.982 172.711 160.982 172.242V171.932L162.096 171.404H162.154V172.242C162.154 173.414 161.568 174 160.396 174H159.049ZM158.463 171.24L160.977 169.213C160.953 168.811 160.76 168.609 160.396 168.609H159.049C158.658 168.609 158.463 168.844 158.463 169.312V171.24ZM163.912 174.234V169.312C163.912 168.141 164.498 167.555 165.67 167.555H167.018C168.189 167.555 168.775 168.141 168.775 169.312V173.707L167.662 174.234H167.604V169.312C167.604 168.844 167.408 168.609 167.018 168.609H165.67C165.279 168.609 165.084 168.844 165.084 169.312V173.707L163.971 174.234H163.912ZM171.307 174.234V168.621H169.801V168.562L170.275 167.555H171.307V165.445L172.42 164.918H172.479V167.555H173.984V167.613L173.51 168.621H172.479V173.707L171.365 174.234H171.307ZM181.748 174C181.482 174 181.287 173.939 181.162 173.818V176.109L180.049 176.637H179.99V169.312C179.99 168.141 180.576 167.555 181.748 167.555H183.096C184.268 167.555 184.854 168.141 184.854 169.312V172.242C184.854 173.414 184.268 174 183.096 174H181.748ZM181.748 172.945H183.096C183.486 172.945 183.682 172.711 183.682 172.242V169.312C183.682 168.844 183.486 168.609 183.096 168.609H181.748C181.357 168.609 181.162 168.844 181.162 169.312V172.242C181.162 172.711 181.357 172.945 181.748 172.945ZM188.369 172.945H189.717C190.107 172.945 190.303 172.711 190.303 172.242V169.312C190.303 168.844 190.107 168.609 189.717 168.609H188.369C187.979 168.609 187.783 168.844 187.783 169.312V172.242C187.783 172.711 187.979 172.945 188.369 172.945ZM188.369 174C187.197 174 186.611 173.414 186.611 172.242V169.312C186.611 168.141 187.197 167.555 188.369 167.555H189.717C190.889 167.555 191.475 168.141 191.475 169.312V172.242C191.475 173.414 190.889 174 189.717 174H188.369ZM193.232 174.234V169.312C193.232 168.141 193.818 167.555 194.99 167.555H196.455V167.613L195.986 168.609H194.99C194.6 168.609 194.404 168.844 194.404 169.312V173.707L193.291 174.234H193.232ZM198.225 174.234V168.621H196.719V168.562L197.193 167.555H198.225V165.445L199.338 164.918H199.396V167.555H200.902V167.613L200.428 168.621H199.396V173.707L198.283 174.234H198.225ZM202.221 174.234V169.207H201.342V169.148L201.816 168.141H202.221V166.91C202.221 165.738 202.807 165.152 203.979 165.152H205.443V165.211L204.975 166.207H203.979C203.588 166.207 203.393 166.441 203.393 166.91V168.141H205.332V168.199L204.857 169.207H203.393V173.707L202.279 174.234H202.221ZM208.373 172.945H209.721C210.111 172.945 210.307 172.711 210.307 172.242V169.312C210.307 168.844 210.111 168.609 209.721 168.609H208.373C207.982 168.609 207.787 168.844 207.787 169.312V172.242C207.787 172.711 207.982 172.945 208.373 172.945ZM208.373 174C207.201 174 206.615 173.414 206.615 172.242V169.312C206.615 168.141 207.201 167.555 208.373 167.555H209.721C210.893 167.555 211.479 168.141 211.479 169.312V172.242C211.479 173.414 210.893 174 209.721 174H208.373ZM213.529 174.234V165.445L214.643 164.918H214.701V173.707L213.588 174.234H213.529ZM217.133 166.26C216.996 166.119 216.928 165.951 216.928 165.756C216.928 165.557 216.996 165.387 217.133 165.246C217.27 165.105 217.436 165.035 217.631 165.035C217.826 165.035 217.992 165.105 218.129 165.246C218.266 165.387 218.334 165.557 218.334 165.756C218.334 165.951 218.266 166.119 218.129 166.26C217.992 166.4 217.826 166.471 217.631 166.471C217.436 166.471 217.27 166.4 217.133 166.26ZM217.045 174.234V167.848L218.158 167.32H218.217V173.707L217.104 174.234H217.045ZM222.025 172.945H223.373C223.764 172.945 223.959 172.711 223.959 172.242V169.312C223.959 168.844 223.764 168.609 223.373 168.609H222.025C221.635 168.609 221.439 168.844 221.439 169.312V172.242C221.439 172.711 221.635 172.945 222.025 172.945ZM222.025 174C220.854 174 220.268 173.414 220.268 172.242V169.312C220.268 168.141 220.854 167.555 222.025 167.555H223.373C224.545 167.555 225.131 168.141 225.131 169.312V172.242C225.131 173.414 224.545 174 223.373 174H222.025ZM233.334 174C232.162 174 231.576 173.414 231.576 172.242V169.312C231.576 168.141 232.162 167.555 233.334 167.555H234.682C234.947 167.555 235.143 167.615 235.268 167.736V165.445L236.381 164.918H236.439V172.242C236.439 173.414 235.854 174 234.682 174H233.334ZM233.334 172.945H234.682C235.072 172.945 235.268 172.711 235.268 172.242V169.312C235.268 168.844 235.072 168.609 234.682 168.609H233.334C232.943 168.609 232.748 168.844 232.748 169.312V172.242C232.748 172.711 232.943 172.945 233.334 172.945ZM238.871 166.26C238.734 166.119 238.666 165.951 238.666 165.756C238.666 165.557 238.734 165.387 238.871 165.246C239.008 165.105 239.174 165.035 239.369 165.035C239.564 165.035 239.73 165.105 239.867 165.246C240.004 165.387 240.072 165.557 240.072 165.756C240.072 165.951 240.004 166.119 239.867 166.26C239.73 166.4 239.564 166.471 239.369 166.471C239.174 166.471 239.008 166.4 238.871 166.26ZM238.783 174.234V167.848L239.896 167.32H239.955V173.707L238.842 174.234H238.783ZM242.006 174.234V169.312C242.006 168.141 242.592 167.555 243.764 167.555H245.229V167.613L244.76 168.609H243.764C243.373 168.609 243.178 168.844 243.178 169.312V173.707L242.064 174.234H242.006ZM247.982 174C246.811 174 246.225 173.414 246.225 172.242V169.312C246.225 168.141 246.811 167.555 247.982 167.555H249.33C250.502 167.555 251.088 168.141 251.088 169.312V169.623L247.414 172.465C247.469 172.785 247.658 172.945 247.982 172.945H249.33C249.721 172.945 249.916 172.711 249.916 172.242V171.932L251.029 171.404H251.088V172.242C251.088 173.414 250.502 174 249.33 174H247.982ZM247.396 171.24L249.91 169.213C249.887 168.811 249.693 168.609 249.33 168.609H247.982C247.592 168.609 247.396 168.844 247.396 169.312V171.24ZM254.604 174C253.432 174 252.846 173.414 252.846 172.242V169.312C252.846 168.141 253.432 167.555 254.604 167.555H255.951C257.123 167.555 257.709 168.141 257.709 169.312V169.623L256.596 170.15H256.537V169.312C256.537 168.844 256.342 168.609 255.951 168.609H254.604C254.213 168.609 254.018 168.844 254.018 169.312V172.242C254.018 172.711 254.213 172.945 254.604 172.945H255.951C256.342 172.945 256.537 172.711 256.537 172.242V171.932L257.65 171.404H257.709V172.242C257.709 173.414 257.123 174 255.951 174H254.604ZM260.24 174.234V168.621H258.734V168.562L259.209 167.555H260.24V165.445L261.354 164.918H261.412V167.555H262.918V167.613L262.443 168.621H261.412V173.707L260.299 174.234H260.24ZM265.701 172.945H267.049C267.439 172.945 267.635 172.711 267.635 172.242V169.312C267.635 168.844 267.439 168.609 267.049 168.609H265.701C265.311 168.609 265.115 168.844 265.115 169.312V172.242C265.115 172.711 265.311 172.945 265.701 172.945ZM265.701 174C264.529 174 263.943 173.414 263.943 172.242V169.312C263.943 168.141 264.529 167.555 265.701 167.555H267.049C268.221 167.555 268.807 168.141 268.807 169.312V172.242C268.807 173.414 268.221 174 267.049 174H265.701ZM270.564 174.234V169.312C270.564 168.141 271.15 167.555 272.322 167.555H273.787V167.613L273.318 168.609H272.322C271.932 168.609 271.736 168.844 271.736 169.312V173.707L270.623 174.234H270.564ZM276.541 174C275.369 174 274.783 173.414 274.783 172.242V167.848L275.896 167.32H275.955V172.242C275.955 172.711 276.15 172.945 276.541 172.945H277.889C278.279 172.945 278.475 172.711 278.475 172.242V167.848L279.588 167.32H279.646V174.645C279.646 175.816 279.061 176.402 277.889 176.402H275.393V176.344L275.861 175.348H277.889C278.279 175.348 278.475 175.113 278.475 174.645V173.824C278.322 173.941 278.127 174 277.889 174H276.541Z" fill="#FCF6F6"/>
<defs>
<linearGradient id="paint0_linear_90_2" x1="200" y1="0" x2="200" y2="300" gradientUnits="userSpaceOnUse">
<stop offset="0.278158" stop-color="#003057"/>
<stop offset="1" stop-color="#B3A369"/>
</linearGradient>
</defs>
</svg>
